<svg id="Capa_1" data-name="Capa 1" xmlns="http://www.w3.org/2000/svg" viewBox="0 0 50 50"><defs><style>.cls-1,.cls-2{fill-rule:evenodd;}.cls-2{fill:#ffd60a;}</style></defs><title>Sin título-1</title><path class="cls-1" d="M28.43,35.51c-.47-.18-.89-.24-1.27-.43a5.52,5.52,0,0,1-1-.67,4.35,4.35,0,0,1-1.57-1.66c-.15-.43-.2-.88-.32-1.31a22.22,22.22,0,0,0-1.34-3.88A9.06,9.06,0,0,0,19.06,24,8.35,8.35,0,0,1,21,23.24c.06-.93-1.25-1.28-1.89-1.91.36-.46,1-.6,1.51-.94A3.91,3.91,0,0,0,22,17.69a10.37,10.37,0,0,0-.5-4.3C21,11.54,19.55,10,18.2,8.59A14.52,14.52,0,0,0,14.5,6c-.5-.26-.91-.58-1.38-.79a16.56,16.56,0,0,0-2.46-.8,9,9,0,0,0-3.27-.52c-2.31.3-5.22,1.31-6.12,2.42A5.69,5.69,0,0,0,.19,11.45a12.86,12.86,0,0,0,2.2,5.34,11.88,11.88,0,0,0,4.38,3.62,21.68,21.68,0,0,0,2.92,1.2c.51.15,1.13.27,1.71.41a10.08,10.08,0,0,0,3.38.48c-.1.08-.34.08-.36.21.14.06.22-.11.44-.11a13.85,13.85,0,0,1,.52,1.51c.13.45.16,1.32.73,1.39s1-.41,1.28-.56a11.81,11.81,0,0,1,1.21-.63c.45.71,1.5,1.09,2.15,1.77a7.28,7.28,0,0,1,1.63,3.13c.2.76.22,1.45.44,2.11.89,2.7,2.76,4.49,6.21,5.11a9.69,9.69,0,0,1,2,1.93c1.45,2.63-1.11,5.38.46,8,.29-1.06.59-2,.83-3.07A8.46,8.46,0,0,0,32.71,40a5.34,5.34,0,0,0-1.66-2.61A8.23,8.23,0,0,0,28.43,35.51Z"/><path class="cls-2" d="M1.75,12.31c1.75,2.44,3.79,5.42,8.45,6a11.1,11.1,0,0,0,5.1-.48A7.22,7.22,0,0,0,16.43,17c.5-.31,1.14-.52,1.52-.83a2.1,2.1,0,0,0,.94-2c-.45.22-.4.59-.56.81a7.1,7.1,0,0,1-3,2,9.23,9.23,0,0,1-1.23.52,11.25,11.25,0,0,1-2.35.26,9.79,9.79,0,0,1-6.88-2.46,8.76,8.76,0,0,1-3-4.69,5.5,5.5,0,0,1-.21-2.82A3.44,3.44,0,0,1,2.91,6.2,11.8,11.8,0,0,1,7.52,4.73c.11,0,.11-.08.28-.06a14.93,14.93,0,0,1,7.71,3.11c.28.25.44.57.7.83A20.53,20.53,0,0,1,18.46,11c.8,1.1,1.9,2.58,2,3.92.17,1.75-1.53,3.15-3.18,4.14A5.51,5.51,0,0,1,15,20.13a19,19,0,0,1-3.2,0A11.48,11.48,0,0,1,9,19.82a5.93,5.93,0,0,1-1.2-.73C5,17.37,2.47,15.58,1.75,12.31ZM2.64,8.5C3.6,8,4,6.8,5.45,6.41c0-.14-.23,0-.2-.18.23-.2.9-.17,1-.46A3.37,3.37,0,0,0,2.64,8.5Zm2.53,4.18a1.57,1.57,0,0,0,.41-1.39C4.68,11.33,4.2,12.47,5.17,12.68Zm1.1-.22a1.38,1.38,0,0,0,.81-1C6.35,11.28,5.8,12.08,6.27,12.46Z"/><path class="cls-2" d="M20.59,17.71a4.61,4.61,0,0,1-1.26,1.81,4.34,4.34,0,0,1-3,1.77,1.76,1.76,0,0,1-.87-.49A9.5,9.5,0,0,0,20.59,17.71Z"/><path class="cls-2" d="M13.86,21a4.75,4.75,0,0,0,.74,0c.12.21.55.35.54.52l-.62,0A7,7,0,0,1,13.86,21Z"/><path class="cls-2" d="M19.6,22.74c-.13.11-.54.09-.77.16-.3-.27-.52-.6-.82-.87,0-.09.17-.09.21-.16A14.67,14.67,0,0,0,19.6,22.74Z"/><path class="cls-2" d="M18.19,23.16a2.44,2.44,0,0,1-.68.37c-.14-.39-.35-.73-.52-1.1C17.7,22,17.67,23,18.19,23.16Z"/><path class="cls-2" d="M16.33,22.58a3.7,3.7,0,0,1,.55,1.29C16.52,23.58,16.55,23,16.33,22.58Z"/><path class="cls-2" d="M12.7,20.83a7.5,7.5,0,0,1,.85.72c-1-.27-2.08-.54-3.14-.79C10.83,20.73,11.94,20.86,12.7,20.83Z"/><path class="cls-1" d="M49.24,6.09c-.84-2.18-1.64-4-4.19-5A13.22,13.22,0,0,0,39.38,0a22.51,22.51,0,0,0-4.87.84A6.73,6.73,0,0,0,33,1.73,16.21,16.21,0,0,0,29.46,5C28.1,6.75,28,8.91,28,11.36a10.92,10.92,0,0,0,1.59,6.33A7.11,7.11,0,0,0,32,19.85a12.32,12.32,0,0,0,3.79,1.24c-.47.86-1.27,1.52-1.41,2.6.36.37,1.3.38,2.21.4.93,1.13-.12,2.12-.63,3a3.91,3.91,0,0,0-.62,3.36c.23.68.83.92,1.42,1.72,1.71,2.35-.27,4.69-2.21,6A8.32,8.32,0,0,0,33,39.31c-.92,1.11-.7,3.07-.34,4.4a6.72,6.72,0,0,0,.56,1.5,12.17,12.17,0,0,1,.91,1.28c.61,1.6-.89,2.47-1.64,3.51,1.4-.51,2.42-1.16,2.49-2.27.1-1.65-1.26-3.38-1.42-5.2a9.32,9.32,0,0,1,0-1.83c.13-1,1-1.51,1.7-2.12,1.4-1.17,3.13-2.73,2.89-4.83-.15-1.34-1.68-2.52-1.75-3.88-.12-2.29,2.44-3.4,1.81-5.74a2.32,2.32,0,0,0,1.3.14c.61-.69.24-2,.34-3,4.67-1.39,8-4.08,9.19-7.8.2-.64.23-1.34.39-2A19.17,19.17,0,0,0,50,9.45,7.31,7.31,0,0,0,49.24,6.09Z"/><path class="cls-2" d="M30.37,10.84c-.2,1.55,1,2.93,2.32,3.92,1.65,1.24,3.81,2.16,7.54,2a9.81,9.81,0,0,1-.79,2,8.67,8.67,0,0,1-5.27-.62,7.69,7.69,0,0,1-2.55-1.42,7.27,7.27,0,0,1-1.14-2.64,13.6,13.6,0,0,1-.34-6.22c.29-1.58.57-3,1.65-4a12.13,12.13,0,0,1,1.41-1A13.5,13.5,0,0,1,34.68,2a17.89,17.89,0,0,1,5-1,9.6,9.6,0,0,1,4,.88c.49.2.94.45,1.36.66a12.87,12.87,0,0,1,1.42.62,4.29,4.29,0,0,1,.85,1.5,9,9,0,0,1,.51,1.69,10.29,10.29,0,0,1,.29,3.84,6.81,6.81,0,0,1-1.42,2.49,8.16,8.16,0,0,1-4.08,3.07,10.51,10.51,0,0,1-4.37.66c-3.79-.18-6.74-2.56-7.65-4.65C30.54,11.45,30.6,11.15,30.37,10.84Zm9.24-6s-.25.15-.23.11a3.47,3.47,0,0,0,4.36,4.39c-.08,0-.2,0-.22,0,1.95-.12,3.07-1.32,2.83-2.78a2,2,0,0,0-1-1.47,5.45,5.45,0,0,1,.34,2.05c-.18,1.22-1.49,1.74-3.23,1.94-2.27-.53-2.69-2.26-2.78-4.21Zm-5.39,2c-.53.68,0,1.87,1.25,1.72a2.22,2.22,0,0,1-1-1.72Z"/><path class="cls-2" d="M43.29,17.83c-.34.09-.59.23-1,.3a4.33,4.33,0,0,0,.39-1.69,5,5,0,0,0,1-.29C43.94,16.67,43.38,17.29,43.29,17.83Z"/><path class="cls-2" d="M41.42,18.38a5.14,5.14,0,0,1-1.08.22c.16-.57.56-1.18.34-1.86a5.63,5.63,0,0,1,1.53-.19C42,17.2,41.65,17.75,41.42,18.38Z"/><path class="cls-2" d="M36.94,21.27a12.92,12.92,0,0,0-.28,1.43c-.27,0-.45-.08-.68,0,.22-.49.49-.95.74-1.43Z"/><path class="cls-2" d="M37.74,21.38h.17c.14.35-.14,1.06-.12,1.58-.42-.34.05-1,0-1.47Z"/><path class="cls-2" d="M38.7,21.38h.4a8.22,8.22,0,0,0-.29,2c-.43-.12-.25-.59-.22-.95s.11-.67.11-.92Z"/><path class="cls-2" d="M35.58,23.25c.29,0,.4.08.68.07C36.11,23.4,35.62,23.37,35.58,23.25Z"/><path class="cls-2" d="M44.14,17.43c0-.33.32-1,.11-1.46a9,9,0,0,0,3.35-3c-.06-.15.17,0,0,0C46.78,14.69,46,16.44,44.14,17.43Z"/><path class="cls-2" d="M39.21,19.85a5.32,5.32,0,0,1,1.64-.33c.06.21-.45.33-.73.44a4.94,4.94,0,0,1-2.27.36,12.12,12.12,0,0,1-7.08-3c0-.25-.21-.43-.23-.7,1,1.38,2.52,2.37,5.16,2.67a9.94,9.94,0,0,1-1.93-.73,16.32,16.32,0,0,0,5.1,1.06C39.13,19.63,39,19.88,39.21,19.85Z"/><path class="cls-2" d="M42.89,18.71c0,.26-.75.32-1,.51C42,19.05,42.66,18.93,42.89,18.71Z"/><path class="cls-1" d="M17.21,19.67A12.9,12.9,0,0,0,20.1,21.5a16.48,16.48,0,0,0,2.55,1.1c.34.09.77.06,1,.29-.12.92-1.47,1.66-.57,2.49.59,0,1.41.12,2.1.15a13,13,0,0,0-.68,3.33A3.66,3.66,0,0,0,25.37,31c.3.41.78.73,1.13,1.17s.44.72.68,1.06a6.65,6.65,0,0,1,.74,1.06c1,2.28,0,4.68-.62,6.55-2,1.91-1.17,5.3.68,6.77a2.11,2.11,0,0,0,.85.51c.06-.22-.25-.39-.4-.58a5.13,5.13,0,0,1-1.19-2.09,8.41,8.41,0,0,1,.23-1.83,6.21,6.21,0,0,1,.45-1.72c.48-1,1.3-2,1.42-3.11.05-.48-.1-1-.06-1.5a7.24,7.24,0,0,0,.17-1,7.42,7.42,0,0,0-1.59-3.66c-.74-1.08-1.91-2.21-2.09-3.37-.21-1.33.36-2.51.39-3.88,2.82.05.43-1.85.23-2.63A15.4,15.4,0,0,0,30.3,21a9.83,9.83,0,0,0,2.38-1.83,8.77,8.77,0,0,0,.91-1.75,24.45,24.45,0,0,0,1.3-3.84,8.62,8.62,0,0,0,.46-2,8.44,8.44,0,0,0-.51-2,9.78,9.78,0,0,0-3.18-5.05,12.1,12.1,0,0,0-5.61-1.68,6.08,6.08,0,0,0-.74,0,15.07,15.07,0,0,0-4.64.88,12.61,12.61,0,0,0-1.53.84,17.72,17.72,0,0,0-1.59.84,11,11,0,0,0-2,2.38,7.64,7.64,0,0,0-1,6.37C15,16.26,15.54,18.26,17.21,19.67Z"/><path class="cls-2" d="M15.68,12.28a7.54,7.54,0,0,0,1.87,4.43,11,11,0,0,0,2,1.54,8.35,8.35,0,0,0,2.61,1.17c2.93.6,5.8-.45,6.68-1.76-.37-.12-.62.16-.85.26a9.11,9.11,0,0,1-5.43.95,7.3,7.3,0,0,1-2.44-1,11.17,11.17,0,0,1-2-1.28,6.83,6.83,0,0,1-2-6.07,8.06,8.06,0,0,1,.74-1.58,9.75,9.75,0,0,1,2-2.81A8.21,8.21,0,0,1,20.1,4.85a10.63,10.63,0,0,1,1.53-.62,10,10,0,0,1,3.23-.62,6.26,6.26,0,0,1,1.93.25,10.38,10.38,0,0,1,3.63,1.21,7.26,7.26,0,0,1,2.21,2.86,11.52,11.52,0,0,1,1.24,3.44,9,9,0,0,1-.68,3.51,7.74,7.74,0,0,1-4.81,4.79c-.57.23-1.28.43-2.05.66a10.57,10.57,0,0,1-2.09.59A12.28,12.28,0,0,1,19.87,20c-1.58-.61-2.24-2.06-3-3.4A6.59,6.59,0,0,1,15.68,12.28ZM20.84,5.4a3.6,3.6,0,0,0-.68.73c-.21.28-.59.57-.4.81.37,0,.35-.26.51-.4A11.64,11.64,0,0,1,22.76,5C22.19,4.56,21.24,5.11,20.84,5.4ZM31.66,7.12c0-.65-1.06-1.93-1.75-1.79a6.89,6.89,0,0,1,1.47,2.82A2.3,2.3,0,0,0,31.66,7.12Zm.51,3.37a.19.19,0,0,1-.05.11A8.83,8.83,0,0,0,32,12.32,8.61,8.61,0,0,1,30.87,16c-.13.23-.49.38-.45.63A2.31,2.31,0,0,0,32,15.1a7.67,7.67,0,0,0,.62-3.51c0-.39,0-.83-.28-1.1ZM25.6,16c-.12.05-.38,0-.51.07s.33.05.39.15c-2.07.62-4.88,0-6.63-.41,1,.79,3,1.05,4.82,1.07,2.54,0,3.33-1,4.59-1.94s2.16-1.74,2.16-2.78c-.08,0-.08-.05-.17,0A9.26,9.26,0,0,1,25.6,16Z"/><path class="cls-2" d="M23.67,21.43c.29,0,.47.06.79,0,.09.12.07.32.12.47s-.45,0-.51.08C23.84,21.88,23.8,21.63,23.67,21.43Z"/><path class="cls-2" d="M24.86,23.08c.28.29.15,1.05.17,1.39C24.84,24.21,25,23.49,24.86,23.08Z"/><path class="cls-2" d="M24.24,24c.13.15,0,.47.11.62-.16,0-.23.07-.4.08A6.07,6.07,0,0,0,24.24,24Z"/><path class="cls-2" d="M28.66,20.44c-.57.66-2.12,1-3.35,1.36-.21,0-.2-.21-.28-.33A7.18,7.18,0,0,0,28.66,20.44Z"/><path class="cls-2" d="M21.52,21c.33,0,.83.24,1.36.25a4.12,4.12,0,0,1,.34.66A16.08,16.08,0,0,1,21.52,21Z"/><path class="cls-2" d="M25.6,23.22c.1,0,.23.4.34.59s.37.47.45.66a3.13,3.13,0,0,0-.56,0A5.64,5.64,0,0,0,25.6,23.22Z"/></svg>