<svg id="Capa_1" data-name="Capa 1" xmlns="http://www.w3.org/2000/svg" viewBox="0 0 50 50"><title>Sin título-1</title><path d="M32.84,23.59h-.07c-.08,0,.08,0,.08,0s-.09,0-.14,0l-.13,0s-.19-.09-.09,0,0,0-.06,0l-.13-.09L32,23.13c-.18-.15-.35-.32-.52-.49s-.15-.15-.23-.23.11.11,0,0l-.15-.16A3.25,3.25,0,0,1,30.9,22l-.12-.16a.76.76,0,0,0-.12-.19s.14.24,0,0c0-.06-.07-.11-.1-.16l-.1-.17-.23-.37c-.08-.11-.15-.22-.22-.33s0,.05,0,.06a.73.73,0,0,0-.05-.09,2,2,0,0,1-.11-.2c-.13-.26-.24-.53-.35-.81l0-.09c0-.11,0,.07,0,.08a1.17,1.17,0,0,0-.06-.2c0-.15-.09-.29-.13-.44s-.14-.58-.19-.88c0,0,0-.08,0-.11s0,.08,0,.09a1.79,1.79,0,0,0,0-.23c0-.16,0-.32,0-.48,0-.33,0-.66,0-1s0-.61,0-.91c0-.15,0-.3,0-.44s0-.15,0-.22,0,.21,0,.09a.76.76,0,0,0,0-.15c.05-.61.12-1.22.22-1.82,0-.32.11-.62.17-.93,0-.14.06-.28.1-.41s0-.07,0-.11-.05.19,0,.08l.06-.23c.18-.63.33-1.26.48-1.9l.09-.41,0-.11c0-.11,0,.08,0,.08a1.68,1.68,0,0,0,.06-.24c.09-.3.19-.58.3-.86l.15-.39.08-.18a1.47,1.47,0,0,0,.1-.22s-.08.16,0,.07a.41.41,0,0,1,0-.09L31,6.8l.21-.33.1-.14.06-.07.06-.07.13-.14a6.17,6.17,0,0,1,.54-.48l.58-.46.15-.1L32.9,5c-.09.06.06,0,.09,0l.17-.1c.42-.23.86-.4,1.27-.64a6,6,0,0,1,1.25-.61l.14,0c.09,0-.06,0-.06,0h.07l.33-.06c.21,0,.43,0,.65-.05a5,5,0,0,1,.67,0l.35,0h0l.18,0a7,7,0,0,1,1.3.42l.31.13.15.07h0l0,0a3,3,0,0,1,.54.41l.23.22-.06-.06.06.06.13.14.47.51.35.37.06.06-.05-.06c0,.06.09.11.13.16s.27.41.4.62.31.4.47.61.15.21.23.32a.26.26,0,0,0,0,.09s-.08-.16,0-.06a2.12,2.12,0,0,1,.11.21c.25.52.44,1.09.64,1.64,0,.14.11.27.16.4l.09.19s0,.14,0,0,0,0,0,0c.09.3.16.62.25.93a15.27,15.27,0,0,1,.44,1.83c0,.15,0,.3.07.45s0,.08,0,.12,0-.21,0-.09l0,.27c0,.33.07.66.08,1,0,.14,0,.29,0,.43v.11c0,.12,0-.09,0-.1a2.11,2.11,0,0,0,0,.25,9,9,0,0,1-.19.9c-.07.3-.13.61-.19.92,0,.15-.07.29-.1.44s0-.08,0-.08,0,.1,0,.11,0,.16-.07.24l-.15.59-.06.25,0,.1c0,.13,0,0,0,0a3.79,3.79,0,0,0-.12.4,3.52,3.52,0,0,1-.15.42c-.1.26-.21.53-.32.79s-.1.25-.16.38l-.08.18a.36.36,0,0,0,0,.09l0,0c-.26.49-.51,1-.8,1.43a3.46,3.46,0,0,1-.22.31c-.09.13.1-.08,0,0l-.15.13a4.39,4.39,0,0,0-.61.61l-.21.28c-.1.13.1-.11,0,0a.67.67,0,0,1-.14.15,4,4,0,0,1-.54.48l-.13.09-.06.05.06,0-.29.17c-.19.1-.38.2-.57.28a9.77,9.77,0,0,1-1.24.46l-.33.09c-.1,0,.14,0,0,0l-.08,0-.19,0c-.22,0-.45.07-.68.09a9,9,0,0,1-1.37,0l-.16,0c-.15,0,.12,0,0,0L35,25.46a5.32,5.32,0,0,1-.67-.14,4,4,0,0,1-.6-.28s.14.09.07,0l-.07,0-.12-.1a1.69,1.69,0,0,0-.44-.23,1.82,1.82,0,0,0-.29-.08c-.08,0,0,0,0,0s0,0-.06,0l-.16-.11-.28-.21a1.64,1.64,0,0,1-.31-.28s.12.13.06,0L32.09,24,32,23.85l-.24-.32c-.15-.21-.3-.43-.44-.66-.29-.45-.58-.9-.88-1.34-.17-.24-.32-.49-.48-.74l-.21-.35,0-.09c-.06-.09,0,.06,0,.07a.69.69,0,0,0-.1-.19,1.22,1.22,0,0,0-.07-.17l0-.09,0,.1c0-.13-.07-.27-.11-.4l-.18-.79a11.67,11.67,0,0,0-.62-1.72c-.11-.25-.21-.5-.31-.76l-.06-.19a.36.36,0,0,0,0-.09l0,.09c0-.14-.08-.27-.11-.41l-.09-.39a.31.31,0,0,0,0-.1c0-.12,0,.1,0,.1a1.18,1.18,0,0,0,0-.26l-.09-1.05c0-.32-.05-.65-.06-1v-.31c0-.12,0,.11,0,.11s0-.32.05-.46,0-.27.07-.41,0-.13,0-.2a.36.36,0,0,0,0-.1.39.39,0,1,0,0,.06q.12-.42.27-.81c.22-.55.47-1.05.72-1.56a.89.89,0,0,1,.08-.17l0-.09c.05-.1,0,.07,0,.07l.18-.36a6,6,0,0,1,.41-.65c.16-.21.31-.41.46-.63l.23-.34a.76.76,0,0,0,.11-.14s-.11.12-.05,0l.08-.09c.36-.41.66-.88,1-1.33l.11-.13c.06-.08,0,0,0,0l.06-.06c.09-.1.18-.18.27-.27l.6-.52c.38-.33.77-.66,1.17-1L34,3.66a.71.71,0,0,1,.14-.1l.07-.05c.1-.07-.11.07,0,0s.41-.24.62-.34a5.38,5.38,0,0,1,.66-.27l.3-.09.16,0,.07,0c.1,0-.14,0,0,0a11.48,11.48,0,0,1,1.31-.19,4.36,4.36,0,0,1,.62,0,1.66,1.66,0,0,1,.32,0h0l.17,0a3.28,3.28,0,0,1,.61.18l.28.12.14.07-.06,0,.09,0a4,4,0,0,1,.55.39l.25.22.12.12.06.06s-.11-.12,0,0a11.34,11.34,0,0,1,1,1.19c.15.21.29.43.43.66l0,.08,0-.07a1.4,1.4,0,0,0,.09.17c.07.12.14.24.2.36.26.49.5,1,.72,1.52a.84.84,0,0,0,.08.19s-.06-.19,0-.07a.49.49,0,0,1,0,.11l.15.48.18.53.06.2s-.05-.17,0-.06a2.58,2.58,0,0,1,.08.26c.2.62.4,1.25.58,1.89A17.73,17.73,0,0,1,44.26,13l0,.23c0,.12,0-.08,0-.09a.5.5,0,0,0,0,.12c0,.17,0,.33,0,.5s0,.31,0,.47,0-.17,0,0,0,.16,0,.25a16.79,16.79,0,0,1-.28,1.75c0,.14-.06.27-.1.4s0-.17,0,0l-.06.23-.24.81c-.18.55-.38,1.08-.58,1.61-.42,1-.88,2-1.35,3-.07.16.08-.15,0,0l-.09.16a3.72,3.72,0,0,1-.19.34l-.1.14s-.14.17-.06.09-.05.05-.07.08l-.14.16A7.06,7.06,0,0,1,40,24.36s-.09,0,0,0l-.07.05-.13.07-.31.14c-.21.07-.44.12-.65.18-.46.12-.92.28-1.37.43-.23.07-.46.15-.7.21l-.08,0h.07l-.16,0-.34,0a4.56,4.56,0,0,1-.64,0h.06l-.07,0-.16,0-.34-.11c-.19-.07-.37-.18-.56-.25L34.33,25s-.2-.09-.08,0,0,0,0,0,.07.07.07.07-.07-.1,0,0,0,0,0-.07a2,2,0,0,0-.18-.39,1.86,1.86,0,0,0-.23-.32l-.09-.11c-.06,0,0,.09,0,.11a.3.3,0,0,0,0-.1c-.31.49-.62,1-.94,1.46a.27.27,0,0,1,.08.07c-.09-.1-.1-.11,0-.05a1.47,1.47,0,0,0,.1.13c.09.11.18.22.28.32a9.93,9.93,0,0,0,.72.73c.32.3.82.06,1-.41a1.36,1.36,0,0,0-.32-1.41l-.18-.17s-.1-.12-.13-.13l0,0-.06-.07-.15-.16a4.17,4.17,0,0,0-.63-.69.59.59,0,0,0-.88.2,1.49,1.49,0,0,0-.06,1.26,1.6,1.6,0,0,0,.26.44l.09.11s.16.21.08.07,0,0,0,.07l.06.16a1.68,1.68,0,0,0,.35.55,2,2,0,0,0,.74.44c.2.08.39.18.59.27a4.25,4.25,0,0,0,3-.05c.48-.16,1-.32,1.45-.46a4.43,4.43,0,0,0,1.32-.5,5.59,5.59,0,0,0,1.26-1.14,6.65,6.65,0,0,0,1-1.44,29.21,29.21,0,0,0,2.62-6.87,13.55,13.55,0,0,0,.3-1.82,9.32,9.32,0,0,0,0-1.18c0-.42-.07-.84-.13-1.25a17.74,17.74,0,0,0-.36-1.93c-.08-.33-.19-.64-.29-1s-.19-.67-.3-1-.13-.41-.2-.61v0c.05.13,0,0,0-.06s-.05-.17-.08-.26c-.12-.37-.22-.75-.37-1.11-.22-.54-.48-1.07-.74-1.57a12.8,12.8,0,0,0-2-2.83,6.34,6.34,0,0,0-1.24-1A4.87,4.87,0,0,0,38.72.59a6.64,6.64,0,0,0-2.84.1,7.16,7.16,0,0,0-1.49.47A8.6,8.6,0,0,0,33,2.05c-.42.31-.84.66-1.24,1a8.47,8.47,0,0,0-1.24,1.23c-.16.2-.3.43-.46.65s-.14.2-.21.3-.08.09,0,0,0,0,0,0l-.14.16a8.12,8.12,0,0,0-.59.79c-.15.23-.32.43-.47.65a10,10,0,0,0-.87,1.62A16.15,16.15,0,0,0,27,10.13a8.62,8.62,0,0,0-.49,1.94,9.85,9.85,0,0,0,0,2.17,12.88,12.88,0,0,0,.26,2.16,13,13,0,0,0,.64,1.82c.11.26.22.52.32.78a1.56,1.56,0,0,0,.08.21l0-.1a.44.44,0,0,0,0,.1c.05.14.08.28.12.43a7.92,7.92,0,0,0,.54,1.79c.16.32.35.61.53.9s.32.52.49.76c.32.46.63.95.93,1.42a7.52,7.52,0,0,0,1.11,1.4,5.06,5.06,0,0,0,.59.47,2.16,2.16,0,0,0,.44.25c.11.05.23.07.34.11l.07,0s-.12-.09-.06,0a1,1,0,0,0,.13.09,2.89,2.89,0,0,0,.44.27,3.31,3.31,0,0,0,.65.27,7.52,7.52,0,0,0,1.54.26,8.81,8.81,0,0,0,3-.38,7.75,7.75,0,0,0,2.6-1.3,3.82,3.82,0,0,0,.55-.52c.12-.13.24-.27.35-.41l.1-.14.06-.07s.1-.13,0,0,0,0,0,0l.06-.06a.69.69,0,0,1,.13-.11,3.47,3.47,0,0,0,.29-.25,5.74,5.74,0,0,0,.58-.77A17.91,17.91,0,0,0,45,20.24a10.4,10.4,0,0,0,.31-1.09c0-.14.06-.28.1-.42s0,.18,0,.05,0-.07,0-.1,0-.17.07-.25c.18-.69.31-1.41.48-2.11a6.81,6.81,0,0,0,.15-2.12c-.06-.74-.15-1.49-.28-2.22s-.32-1.28-.49-1.92c-.1-.39-.2-.77-.33-1.14s-.24-.56-.34-.85A10.55,10.55,0,0,0,44,6.35a5.53,5.53,0,0,0-.59-.87,4.89,4.89,0,0,1-.44-.62,5.59,5.59,0,0,0-.44-.61c-.08-.1-.17-.18-.25-.27l-.06-.06s.12.13,0,.06L42,3.69a12.09,12.09,0,0,0-1.12-1.14,5.29,5.29,0,0,0-1.4-.75,7.37,7.37,0,0,0-1.37-.39,6.24,6.24,0,0,0-3,.2,12.42,12.42,0,0,0-1.3.68c-.44.24-.9.42-1.34.7A7.35,7.35,0,0,0,30,5.26,12.41,12.41,0,0,0,28.62,9c0,.14-.06.28-.1.42a2,2,0,0,1-.05.24l0-.08a.57.57,0,0,0,0,.14c-.1.36-.2.72-.29,1.09-.15.61-.28,1.24-.37,1.87a23,23,0,0,0-.18,4.07A11.28,11.28,0,0,0,27.84,19a12,12,0,0,0,.6,1.95,10.63,10.63,0,0,0,.94,1.69l.12.19.06.1c-.09-.17.11.17.1.16a.56.56,0,0,0,.05.08,1.64,1.64,0,0,0,.14.22,4.49,4.49,0,0,0,.52.62,4.32,4.32,0,0,0,2.55,1.7c.38,0,.72-.54.69-1.07s-.36-1-.77-1Z"/><path d="M29.4,22.42l.08-.09c.27-.09.35-.12.22-.11h-.07a1.08,1.08,0,0,0-.36.05,1.68,1.68,0,0,0-.48.2,4.36,4.36,0,0,0-1,.82,12.6,12.6,0,0,0-1.53,2c-.22.35-.42.73-.63,1.1A8,8,0,0,0,25,27.68c-.07.18-.13.36-.22.54,0,0-.09.21,0,.06s0,0,0,.06l-.15.31A14.08,14.08,0,0,0,24,30a10.39,10.39,0,0,0-.49,1.52c-.1.45-.15.93-.24,1.39-.2,1-.41,2-.56,3a20,20,0,0,0-.09,3.38c0,.52,0,1,.07,1.54s.12,1.08.13,1.62a30.11,30.11,0,0,0,.32,3.69c.08.53.21,1,.29,1.58a1.56,1.56,0,0,0,.82,1.36c.37.13.8-.21.87-.76a1.19,1.19,0,0,0-.56-1.26c-.11,0,.12.08.14.11s.17.29.12.15.07.27.05.13a.29.29,0,0,1,0-.09c0-.15-.05-.31-.08-.46-.08-.48-.19-1-.26-1.44l0-.19c0-.16,0,.26,0,0,0-.1,0-.21,0-.31,0-.26-.05-.53-.07-.79,0-.51-.07-1-.09-1.53s0-1-.1-1.54-.08-1-.09-1.53,0-1,0-1.54q0-.36,0-.72a.86.86,0,0,1,0-.16c0,.25,0,.06,0,0s0-.29.05-.43c.12-1,.32-2,.51-2.93.09-.45.17-.91.24-1.37a2.33,2.33,0,0,0,.05-.28c0-.05,0-.11,0-.17s-.07.24,0,0,.16-.44.24-.66c.15-.42.3-.84.48-1.23a.61.61,0,0,1,.05-.12c.07-.15,0,0,0,0a2.44,2.44,0,0,1,.14-.28c.12-.24.24-.48.35-.73s.13-.37.21-.55a.61.61,0,0,0,.05-.12c-.05.17-.05.11,0,.05l.17-.3c.2-.34.39-.69.59-1s.47-.77.73-1.13c.13-.18.25-.35.39-.51l.09-.12-.06.08.07-.09.2-.22c.15-.16.29-.31.45-.45l.21-.18c.11-.09,0,0,0,0a.32.32,0,0,1,.14-.08,1.23,1.23,0,0,1,.26-.12h0c.08,0,.06,0-.05,0s.1,0,.11,0a.84.84,0,0,0,.78-.44,1.39,1.39,0,0,0-.06-1.47.58.58,0,0,0-1,0Z"/><path d="M24.4,47a.81.81,0,0,0-.4.34,1.37,1.37,0,0,0,0,1.37c.21.37.66.54.94.23.15-.16-.37.06-.18.07h.39l.63,0c.42,0,.84,0,1.26-.08.82-.08,1.63-.18,2.45-.19.4,0,.81,0,1.21,0a8.25,8.25,0,0,1,1.22,0h.17s.14,0,0,0c.1,0,.2,0,.3.06l.65.14,1.23.26a7.94,7.94,0,0,0,2.52.17c.41-.06.82-.13,1.23-.16a3.88,3.88,0,0,1,.59,0h.14c.19,0-.16,0,0,0l.33.06a13.21,13.21,0,0,0,2.51.13,3.57,3.57,0,0,0,1.33-.22l.26-.1a1,1,0,0,1,.32-.11s-.17,0,0,0l.15,0,.32,0a14.22,14.22,0,0,0,1.43-.24c.1,0,.21,0,.31-.09s-.16,0,0,0a1.08,1.08,0,0,1,.18,0,2.49,2.49,0,0,0,.61,0l.24-.06.11,0c-.1,0-.11,0,0,0l.32,0a4.48,4.48,0,0,0,.63-.06l.3-.07.07,0h-.06a.61.61,0,0,1,.3,0,1.11,1.11,0,0,0,.44,0l.11-.05c.07,0,.21-.06,0,0a.93.93,0,0,0,.69-1.06c0-.54-.36-1-.77-1a.93.93,0,0,0-.39.12s-.06,0-.07,0l.1,0h-.1a2.4,2.4,0,0,0-.7.09s-.1,0-.15,0l.09,0-.1,0-.27,0a3.8,3.8,0,0,0-.58.06l-.3.07h0q-.14,0,0,0s-.22,0-.24,0a1.72,1.72,0,0,0-1,.1l-.1,0c-.18,0,.16,0,0,0l-.59.1c-.44.06-.88.1-1.31.2a5.66,5.66,0,0,0-.58.2l-.27.1c-.18.06.16,0,0,0l-.16,0c-.4.05-.81,0-1.21,0a9.72,9.72,0,0,1-1.21,0l-.17,0c-.18,0,.12,0,0,0l-.31-.05a4.85,4.85,0,0,0-.75-.11,5.71,5.71,0,0,0-1.24.08,7.34,7.34,0,0,1-1.23.13,4,4,0,0,1-.6,0h-.11s-.23,0,0,0l-.33-.06c-.82-.15-1.64-.36-2.46-.51a13.9,13.9,0,0,0-2.58,0c-.47,0-.94,0-1.41.05s-.91.1-1.36.14-.95.07-1.43.09l-.68,0c-.29,0-.58,0-.82.23l.94,1.6-.22.21c.37-.12.6-.78.46-1.29s-.53-.83-.92-.69Z"/><path d="M43.57,23.93v-.09l-.48.74c.12-.06-.05,0-.07,0s-.06,0-.07,0-.05,0-.07,0l.07.06.29.26.33.28.16.14a.46.46,0,0,0,.07.07c.07.08-.13-.14,0,0a8.86,8.86,0,0,1,.59.75c.21.28.43.55.63.84a.83.83,0,0,1,.14.22s-.11-.19,0,0l.07.13c.1.17.19.35.28.53.18.34.35.69.52,1.05s.31.69.45,1c.07.17.13.34.19.52s-.06-.18,0-.05l0,.1c0,.11.07.22.1.33.24.79.41,1.61.59,2.42s.32,1.73.46,2.61c.07.42.16.83.24,1.25,0,.11,0,.21.05.32a.68.68,0,0,1,0,.15c0-.23,0-.09,0,0,0,.24,0,.48.08.71s.07.53.1.8c0,.1,0,.21.05.31l0,.16,0,.12,0-.12c0,.09,0,.21,0,.31s0,.21,0,.31.05.47.07.7c.09,1,.12,2,.15,2.94l.06,1.52c0,.23,0,.47,0,.7v.15c0,.1,0,.1,0,0s0-.1,0,0a2.5,2.5,0,0,0,0,.29c-.05.53.15,1.14.56,1.26a.75.75,0,0,0,.86-.76c0-.26.08-.46.09-.73s0-.46,0-.68L50.13,44c0-.92-.05-1.84-.12-2.76s-.19-2-.34-2.94c0-.05,0-.2,0,0,0-.05,0-.11,0-.16l0-.32L49.5,37c-.06-.45-.15-.89-.23-1.34-.18-.91-.3-1.85-.49-2.76s-.35-1.7-.59-2.53a17.51,17.51,0,0,0-.9-2.46,20.24,20.24,0,0,0-1.18-2.27,12.37,12.37,0,0,0-.73-1,8.44,8.44,0,0,0-.7-.88c-.27-.28-.56-.51-.85-.77s-.76-.57-1.19-.35a.92.92,0,0,0-.48.75v.09a1.66,1.66,0,0,0,.1.8.86.86,0,0,0,.46.46.74.74,0,0,0,.86-.76Z"/><path d="M42.58,21.43l0,0a1,1,0,0,0-.49.88,1.3,1.3,0,0,0,.39,1,2.11,2.11,0,0,0,.51.35l.18.09c-.21-.1,0,0,.08.06l.35.32,0,0,.08.09c.07.08.14.15.2.23a4.56,4.56,0,0,1,.31.42l.13.21a1,1,0,0,1,.08.14c.06.1-.09-.16,0,0,.19.33.37.67.55,1s.33.71.48,1.08l.19.51s0,.09,0,.13c.08.22,0-.15,0,0l.1.31c.14.43.28.84.4,1.28.05.21.08.42.13.63a6.08,6.08,0,0,0,.25.79c0,.08.06.18.09.25-.08-.15,0-.13,0-.05l0,.14c.06.22.1.45.16.66A10.8,10.8,0,0,1,47,33.24c.07.45.17.89.26,1.33,0,.2.08.4.11.6l0,.19c0,.15,0-.19,0,0s0,.26,0,.39c0,.46.1.92.16,1.38l.06.45,0,.13c0-.13,0-.16,0-.08a1.36,1.36,0,0,1,0,.2c0,.23,0,.46.06.69A12.78,12.78,0,0,0,47.89,40l.06.34s0,.09,0,.14,0,.08,0,0c0,.08,0,.22,0,.3s0,.27,0,.4c.05.56.11,1.16.21,1.71l0,.15c0,.24,0-.22,0,0s0,.25,0,.38,0,.53,0,.79c0,1.08.09,2.16.13,3.25,0,.54.37,1.05.76,1s.71-.48.69-1.07c0-1-.08-2-.11-3,0-.47,0-.94,0-1.41a7.53,7.53,0,0,0-.11-.83.8.8,0,0,1,0-.15l0,.12a.45.45,0,0,1,0-.11c0-.13,0-.26,0-.39-.05-.49-.06-1-.13-1.47,0-.25-.07-.49-.11-.73a1.68,1.68,0,0,1-.06-.37s0,.25,0,0a1.64,1.64,0,0,0,0-.23c0-.47-.05-.94-.11-1.4,0-.12,0-.24,0-.35,0,.24,0,.09,0,0s0-.24,0-.35-.07-.5-.09-.75c-.07-.53-.11-1.06-.2-1.59s-.19-.89-.27-1.34-.14-.88-.23-1.32c0-.21-.1-.41-.16-.62s-.08-.43-.14-.63-.17-.51-.27-.75a.65.65,0,0,0,0-.13c.09.22,0,.12,0,.06s-.05-.24-.08-.36a9.58,9.58,0,0,0-.35-1.3,23.42,23.42,0,0,0-.94-2.55c-.18-.41-.39-.81-.6-1.19a11.56,11.56,0,0,0-.76-1.23,6.56,6.56,0,0,0-.91-1,2.89,2.89,0,0,0-.58-.38l-.09-.05c-.07,0,.15.1,0,0a1.81,1.81,0,0,1-.23-.18c0,.64-.06,1.27-.1,1.91l0,0a1.16,1.16,0,0,0,.46-1.3c-.13-.5-.54-.89-.92-.69Z"/><path d="M30.18,22.27A1,1,0,0,0,29,22a2.21,2.21,0,0,0-.81.51q-.43.43-.87.84a4.26,4.26,0,0,0-.88.87,6,6,0,0,0-.32.62l-.11.27-.06.16c-.07.17.09-.17,0,0-.2.35-.43.65-.62,1a17,17,0,0,0-1.13,2.87c-.15.48-.29,1-.42,1.46s-.3,1.09-.39,1.65a20.29,20.29,0,0,0-.3,3.22c0,1.1,0,2.21.05,3.31A29.91,29.91,0,0,0,23.27,42c0,.21.06.41.08.62s0-.23,0,0l0,.24c0,.3,0,.61,0,.91,0,.61.13,1.22.19,1.82s.07.9.11,1.35a2.81,2.81,0,0,0,.4,1.47c.22.23.44.36.71.24a.94.94,0,0,0,.48-.74l0-.08a1.15,1.15,0,0,0-.56-1.26c-.41-.12-.75.2-.86.76l0,.07,1.2-.5c-.07-.07.13.24.08.15s.08.3.06.15,0-.12,0-.18,0-.07,0-.11c.06.32,0,.22,0,.14l0-.27c0-.37-.05-.75-.09-1.13s-.12-1-.17-1.49,0-1.07-.09-1.6c0-.17,0-.34-.07-.51s0,.24,0,0l0-.15-.09-.77c0-.51-.05-1-.06-1.53,0-1.07-.06-2.14-.07-3.2,0-.5,0-1,0-1.51a1.09,1.09,0,0,1,0-.18s0,.24,0,0l0-.37c0-.24.06-.48.09-.72.06-.46.11-.93.21-1.38.05-.22.1-.43.16-.65s-.06.21,0,0l0-.14c0-.13.07-.27.11-.4A25.29,25.29,0,0,1,26,28.42c.09-.21.17-.41.27-.62l.07-.16c0-.07.08-.09,0,.05.06-.08.1-.19.16-.28a9.51,9.51,0,0,0,.65-1.13,2.36,2.36,0,0,0,.12-.28,1.6,1.6,0,0,0,.13-.3s-.11.2,0,.07l.08-.13a.61.61,0,0,1,.07-.1c.11-.16-.08.07,0,0,.29-.3.62-.55.93-.82l.44-.43.21-.21s.1-.09.11-.08-.15.08-.05,0,.24-.15.34-.13-.2,0-.08,0h.1c-.14,0-.18,0-.09,0s0,0-.11-.06-.14-.16-.09-.09a.59.59,0,0,0,1,0,1.44,1.44,0,0,0-.06-1.47Z"/><path d="M25.43,47a.82.82,0,0,0-.83-.38.69.69,0,0,0-.51.32,1.27,1.27,0,0,0-.18.74c0,.57.36,1,.76,1s.78-.16,1.17-.16.74.1,1.12.08h.61s.15,0,0,0l.16,0,.32.08a4.92,4.92,0,0,0,1.27,0l1.2,0,.28,0c.07,0,.21,0,.27,0h0l.13,0a3.65,3.65,0,0,0,.46.07l.55,0c.19,0-.16,0,0,0h.11l.47.08a7.32,7.32,0,0,0,1.15.06c.38,0,.76.09,1.15.09s.77,0,1.16-.06.81-.06,1.22,0l.27,0c.11,0-.19,0,0,0L38,49a2.72,2.72,0,0,0,.57,0c.8,0,1.59-.08,2.39-.1s1.56,0,2.34-.06a7.72,7.72,0,0,0,.79-.14h0a.57.57,0,0,1,.22,0,1.83,1.83,0,0,1,.33,0,4.22,4.22,0,0,0,.62,0,3.63,3.63,0,0,0,.45-.1s.11-.06.15-.05-.12,0-.06,0h.08a7.32,7.32,0,0,0,1.4-.09,2.43,2.43,0,0,1,.28-.1s-.17,0,0,0h.86c.38,0,.73-.51.69-1.07s-.36-1-.77-1a4,4,0,0,0-1.28.12l-.11.05c-.15.08.12,0,0,0h-.83a2.8,2.8,0,0,0-.7.09c-.07,0-.18.09-.25.07.12,0,.1,0,0,0l-.21,0h-.58l-.27,0-.11,0-.24,0q-.12,0,0,0a.86.86,0,0,0-.27.05l-.27,0c-.21,0-.41,0-.61.05H41.46c-.8,0-1.59,0-2.38.07l-.54,0c-.2,0-.4,0-.59,0,.19,0,0,0,0,0l-.25,0-.26,0-.62,0-1.22.06a6.32,6.32,0,0,1-1.15,0,11.52,11.52,0,0,0-1.18,0l-.54-.06-.11,0c.2,0,0,0,0,0a3.54,3.54,0,0,0-.47-.07c-.18,0-.36,0-.55,0h-.13c-.12,0,.18,0,0,0L31,46.6a9.41,9.41,0,0,0-1.19,0,11.65,11.65,0,0,1-1.32,0s-.09,0-.11,0h0l-.08,0-.3-.06a3.2,3.2,0,0,0-.81-.09c-.23,0-.45,0-.67,0s-.42-.07-.63-.08a11.26,11.26,0,0,0-1.3.16c0,.69,0,1.38.07,2.07h.11l-.12,0a.55.55,0,0,1-.2-.15.58.58,0,0,0,1,0A1.41,1.41,0,0,0,25.43,47Z"/><path d="M24.35,47.89c.09.1.11.11.06,0a1.22,1.22,0,0,1,.17.85c-.06.15-.11.31-.17.46s-.35.34-.37.25h.14c.11,0,.24,0,.35,0s-.15,0-.07,0l.07,0,.15.06a2.19,2.19,0,0,0,.33.12,4.68,4.68,0,0,0,1.49.17c.47,0,.94,0,1.41,0l.73,0c.23,0,.46,0,.69,0a.86.86,0,0,0,.16,0s-.15,0-.07,0h.07A4.2,4.2,0,0,0,30,50c.12,0,.24,0,.36,0s-.12,0,0,0l.2,0a4.94,4.94,0,0,0,.86.11h.72c1,0,1.9.31,2.85.33.5,0,1,0,1.49,0s1,0,1.45.06c1,0,2-.08,2.94-.12s1.95-.08,2.93-.1a16.44,16.44,0,0,0,2.89-.18c.22,0,.44,0,.66-.09a3.94,3.94,0,0,0,.47-.1h-.07s.05,0,.07,0l.18,0a2.5,2.5,0,0,0,.81-.13l.08,0c.07,0,0,0-.06,0s.06,0,.08,0l.23,0a1.13,1.13,0,0,0,.73-.39,1.79,1.79,0,0,0,.26-1.46c0-.11,0-.21-.07-.32s0-.19,0,0,0,0,0,0,0-.11,0-.17a4,4,0,0,0-.12-.6c0-.06,0-.12,0-.19s0-.05,0-.08,0,.07,0,.1a3.4,3.4,0,0,0-.08-.64c0-.07,0-.13,0-.19s0-.08,0-.1,0,.26,0,.07l-1.45.06c0,.14,0,.29,0,.43,0,.54.37,1,.76,1s.71-.48.69-1.06c0-.15,0-.29,0-.44,0-.54-.37-1-.76-1s-.71.49-.69,1.07a3.3,3.3,0,0,0,.09.63s0,.26,0,.09,0,.09,0,.14,0,.4.09.59a1.05,1.05,0,0,1,.05.19l0,.1c0,.13,0,0,0-.08a2.59,2.59,0,0,0,.08.63,3.59,3.59,0,0,0,.08.35c0,.1,0-.14,0-.14s0,.13,0,0a1.13,1.13,0,0,1,.23-.55s.1-.07.11-.07l-.06,0c-.1.05.18,0,0,0a3.26,3.26,0,0,0-.61.11.76.76,0,0,0-.16.06l-.07,0c0-.06.13,0,0,0h-.33a2.44,2.44,0,0,0-.47.09l-.15,0h0c.11,0,0,0,0,0-.24,0-.48,0-.72.1a15.85,15.85,0,0,1-2.92.16l-3,.11c-1,0-2,.14-3,.1-.5,0-1-.06-1.49,0s-1,.06-1.51,0c-1-.07-2-.34-2.93-.32h-.61c-.13,0,0,0,0,0a1.59,1.59,0,0,0-.34-.06l-.52-.08-.33,0c-.13,0,0,0,0,0h-.07l-.18,0a2.74,2.74,0,0,0-.81,0,12.19,12.19,0,0,1-1.48,0c-.47,0-.94,0-1.41,0l-.34,0h0s-.13,0-.18,0c-.22-.06-.43-.17-.66-.23-.57-.17-1.51-.23-1.66.81a1.57,1.57,0,0,0,.54,1.41.55.55,0,0,0,.56.08.86.86,0,0,0,.42-.49,1.48,1.48,0,0,0,0-.81,1.25,1.25,0,0,0-.36-.61Z"/><path d="M23.12,46.43c0,.36,0,.72,0,1.08a5.25,5.25,0,0,0,.08.68,1.77,1.77,0,0,0,0,.2c0,.11,0,.08,0-.07a.61.61,0,0,1,0,.14c0,.54.37,1,.77,1s.7-.48.68-1.06a8.69,8.69,0,0,0-.05-.89,3.37,3.37,0,0,0-.23-.72l-.05-.11c0-.11.07.24,0,.06s-.05-.16-.07-.24,0-.08,0-.12,0,0,0,.06c0-.09,0-.17,0-.27l-1.45.06A10.28,10.28,0,0,0,23,47.71,1.26,1.26,0,0,0,23,48s0-.24,0-.06A.22.22,0,0,1,23,48c0,.16,0,.31,0,.46,0,.74.38,1.36.92,1.38a7.87,7.87,0,0,0,.84,0l.93,0c.13,0,.25,0,.37,0h.09c.12,0,0,0-.06,0s.16.06.22.08a2.64,2.64,0,0,0,1,0,.81.81,0,0,0,.22,0c.1,0-.14,0,0,0l.09,0a1.39,1.39,0,0,0,.53.1c.33,0,.66,0,1-.06h.5l.28,0s.11,0,.11,0h-.08l.11,0a.59.59,0,0,0,.56-.13,1.11,1.11,0,0,0,.31-.63c.06-.51-.15-1.18-.56-1.26a7.49,7.49,0,0,0-1.89-.08l-.36,0H28c-.09,0,0,0,.06,0a1,1,0,0,0-.18-.06,2.93,2.93,0,0,0-1,0h-.3c-.08,0,.07,0,.08,0a.39.39,0,0,0-.17-.06.84.84,0,0,0-.35-.07,6.79,6.79,0,0,0-.78,0l-.91,0-.39,0-.16,0c-.13,0-.08-.21.26.1a.91.91,0,0,1,.28.53c0,.2,0-.07,0-.13s0-.15,0-.22a3.65,3.65,0,0,0-.08-.74c0-.11,0-.21,0-.32l0,.1a1.8,1.8,0,0,0,0-.22c0-.23,0-.46,0-.7,0-.54-.38-1-.77-1s-.66.49-.68,1.07a4,4,0,0,0,.23,1.33,3.62,3.62,0,0,0,.13.35l.05.1c.06.16,0-.17,0-.05s0,.18,0,0,0,0,0,.08,0,.26,0,.39l1.45-.05a5.36,5.36,0,0,0-.09-.7,1.38,1.38,0,0,0,0-.2c0,.17,0,.19,0,.07a.49.49,0,0,0,0-.12c0-.36,0-.72,0-1.08,0-.55-.38-1.05-.77-1a1,1,0,0,0-.69,1.07Z"/><path d="M50,48.57v0l-.06.25a.08.08,0,0,1,0,0l-.11.21,0,0-.14.17a.61.61,0,0,1,.15-.12,1.31,1.31,0,0,0,.34-.52,2.56,2.56,0,0,0,.07-1.14c0-.29,0-.59,0-.88l0-1c0-.54-.38-1.05-.77-1a.94.94,0,0,0-.69,1.06c0,.44,0,.88,0,1.31,0,.19,0,.37,0,.55s0,.34,0,.5v-.27a.34.34,0,0,1,0,.1l.06-.25a.14.14,0,0,1,0,.06l.11-.22a.43.43,0,0,1,0,.07l.14-.17a1.15,1.15,0,0,0-.17.14,1.28,1.28,0,0,0-.38.78,1.15,1.15,0,0,0,.55,1.26c.39.11.78-.2.87-.76Z"/><path d="M15.6,1.45c-.26,0-.52-.09-.78-.11s-.5,0-.74,0-.49,0-.73,0a3.19,3.19,0,0,0-.85.2,7.23,7.23,0,0,0-1.35.58c-.21.12-.42.24-.64.34a3.44,3.44,0,0,0-.75.41c-.17.14-.33.32-.5.48L8.63,4c-.2.18-.42.32-.62.5a4.24,4.24,0,0,0-.6.71c-.31.45-.59,1-.93,1.36a3.56,3.56,0,0,0-.52.8,6.58,6.58,0,0,0-.28.82,22.18,22.18,0,0,0-.91,3.8,17.49,17.49,0,0,0-.21,2.18,16.07,16.07,0,0,0,.16,2.3c.1.7.23,1.38.36,2.06a15.62,15.62,0,0,0,.5,2,4.8,4.8,0,0,0,.92,1.5c.36.45.7.9,1.07,1.33s.83.91,1.26,1.33L10,25.75a5.14,5.14,0,0,0,2.7,1.39c.53.09,1.05.11,1.58.16a9.18,9.18,0,0,0,1.39.08,4.18,4.18,0,0,0,1.46-.33,4.11,4.11,0,0,0,.69-.42l.29-.23.14-.1.07,0-.08,0,.07,0a7.77,7.77,0,0,0,1.31-.89A9.11,9.11,0,0,0,20.76,24a14.42,14.42,0,0,0,1.67-3.14,7.7,7.7,0,0,0,.51-1.9c.08-.64.21-1.26.31-1.89a17.4,17.4,0,0,0,.2-2.29c0-.68-.12-1.34-.15-2A15.35,15.35,0,0,0,23,10.51c-.14-.65-.33-1.28-.5-1.91A8.7,8.7,0,0,0,21,5.34c-.2-.23-.42-.43-.63-.63l-.15-.14c-.11-.1.1.12,0,0l-.27-.33a4.54,4.54,0,0,0-.59-.7,2.39,2.39,0,0,0-.75-.44c-.21-.09-.42-.17-.62-.27l-.15-.07.06,0s-.06,0-.09,0l-.13-.1-.07-.05,0,0c.08.1-.07-.07-.09-.1l-.12-.13A2,2,0,0,0,17,2a2.19,2.19,0,0,0-.47-.3.76.76,0,0,0-.64,0,1.25,1.25,0,0,0-.55,1.22c0,.54.36,1,.77,1a1,1,0,0,0,.68-1.07v0a1,1,0,0,1-.28.77l-.14.09c-.16,0-.21,0-.13,0-.25,0-.17,0-.1,0l.08,0c-.16,0-.15-.09-.07,0l.08,0,.13.11-.13-.13.08.09.12.14c.12.13.23.26.36.38a2.66,2.66,0,0,0,.72.46c.19.1.39.17.58.26l.29.13,0,0,0,0s.14.1.17.12-.11-.15,0,0l.11.13.21.29a6,6,0,0,0,.63.7l.25.23.13.12,0,0,0,0c0,.07.16.19.21.25a2.75,2.75,0,0,1,.23.33s.09.12.09.15l-.06-.1.06.1c.06.11.12.22.17.33s.22.49.32.75l.06.17,0,.06c0,.09,0,.07,0-.07a2.46,2.46,0,0,1,.13.41c.08.31.16.62.25.92s.16.58.22.87.07.3.1.45l0,.22c0,.06.08.4,0,.11a6.08,6.08,0,0,1,.07.95c0,.35.06.68.09,1s.06.61.07.92a4,4,0,0,1,0,.49c0-.27,0,0,0,0s0,.21,0,.32c-.06.63-.15,1.24-.26,1.84s-.16,1.16-.27,1.72l0,.06c0,.11,0,.09,0-.06a.82.82,0,0,1-.06.19c0,.13-.09.25-.14.38s-.2.54-.32.8-.1.24-.16.36l-.08.17c-.1.21.09-.18,0,0s-.26.49-.4.73A13.29,13.29,0,0,1,19.38,23l-.12.15s-.15.21,0,0a1.59,1.59,0,0,1-.24.27,4.2,4.2,0,0,1-.55.49c-.16.11.15-.09,0,0l-.14.08a2.61,2.61,0,0,1-.28.17,6.54,6.54,0,0,0-.72.49l-.27.2,0,0,0,0a.41.41,0,0,1-.13.08,3.07,3.07,0,0,1-.59.25c-.17.06.17,0,0,0l-.16,0-.3.05c-.23,0-.46,0-.69,0-.44,0-.88-.1-1.32-.13l-.62-.05a2.77,2.77,0,0,1-.3,0c.2.05,0,0,0,0l-.21,0a3.72,3.72,0,0,1-.64-.22l-.29-.13a.61.61,0,0,0-.14-.07l-.09-.05c-.08,0-.06,0,0,0-.07,0-.21-.13-.27-.17l-.27-.2a6.21,6.21,0,0,1-.59-.56c-.37-.37-.75-.72-1.12-1.1,0,0-.18-.17,0,0l-.13-.14-.26-.28c-.19-.2-.37-.41-.55-.63-.34-.4-.65-.82-1-1.23A3,3,0,0,1,7.13,20,1.71,1.71,0,0,0,7,19.86l0-.05,0,.05s-.15-.3-.16-.34l0-.06c0-.1,0-.08,0,.06a.91.91,0,0,1-.07-.25c-.16-.56-.27-1.14-.38-1.71l-.18-.95c0-.16,0-.32-.07-.48s0-.15,0-.23c0,.29,0-.07,0-.12a9.57,9.57,0,0,1-.07-2c0,.28,0,0,0,0a1.94,1.94,0,0,0,0-.24l.06-.45.12-.86c.09-.59.21-1.16.34-1.73,0-.05,0-.28,0,0a1.94,1.94,0,0,1,0-.2l.12-.4c.08-.29.18-.57.27-.85l.11-.38c0-.06,0-.11.07-.17s-.11.14,0,0l.48-.62c.31-.4.57-.88.87-1.29l.11-.15,0,0c.06-.07.05-.06,0,0a.68.68,0,0,1,.25-.23c.21-.16.41-.32.61-.5.36-.31.71-.66,1.08-1,.13-.12-.16.07,0,0l.14-.07.31-.13c.21-.1.42-.22.64-.34A7,7,0,0,1,13,3.58a.94.94,0,0,1,.31-.1c-.19,0,0,0,0,0l.17,0c.24,0,.48,0,.72,0s.45,0,.67,0c.05,0,.26.06.29,0l-.1,0,.1,0,.15,0a.58.58,0,0,0,.56-.12,1.14,1.14,0,0,0,.31-.64c.06-.49-.15-1.19-.56-1.26Z"/><path d="M17.75,2.64a.45.45,0,0,1,.36,0c.16.09-.06-.08.08.06s0,0,0,0a1.8,1.8,0,0,0-.32-.35,3.63,3.63,0,0,0-.79-.39,3.49,3.49,0,0,0-.34-.15l-.28-.05h-.07c-.1,0,.15.05,0,0a6,6,0,0,0-.69-.21,5,5,0,0,0-.85-.21,3.72,3.72,0,0,0-.67,0c-.51,0-1,0-1.54.06a5.83,5.83,0,0,0-1.61.2l-.35.11-.08,0c-.14,0,0,0,0,0l-.33.07c-.23.07-.44.23-.66.32A4.73,4.73,0,0,0,9,2.44l-.43.28-.13.1-.09.06c-.08.06.13-.08.05,0a4.08,4.08,0,0,0-.7.47c-.2.19-.39.43-.58.64A12.32,12.32,0,0,0,6,5.46a11.54,11.54,0,0,0-.87,1.72q-.18.42-.33.87c0,.12-.08.25-.13.37a.76.76,0,0,1,0,.11s.08-.17,0-.08a1.28,1.28,0,0,0-.11.2,4.77,4.77,0,0,0-.42,1.17c-.08.3-.13.62-.19.94s-.09.64-.11,1,0,.83,0,1.26c0,.71,0,1.4,0,2.11s.19,1.51.31,2.25a11.32,11.32,0,0,0,.61,2.05,18.07,18.07,0,0,0,.71,1.74,14.77,14.77,0,0,0,1,1.74,8.64,8.64,0,0,0,1.18,1.47,11.15,11.15,0,0,0,1.2.91,7.64,7.64,0,0,0,1.49.84,3.84,3.84,0,0,0,.72.25l.49.08.19,0s.11,0,0,0,0,0,0,0a8.29,8.29,0,0,0,1.64.16l1.54,0c.51,0,1,0,1.54-.08a1.93,1.93,0,0,0,.89-.4l.25-.22.12-.11s.12-.08,0,0,0,0,0,0a4.48,4.48,0,0,0,.75-.39c.2-.15.4-.33.6-.49a8.78,8.78,0,0,0,1.14-1.07,9.52,9.52,0,0,0,1-1.48,8.24,8.24,0,0,0,.47-.94s.07-.16,0,0,0,0,0,0a1.4,1.4,0,0,0,.1-.16c.09-.16.18-.32.26-.49a6.5,6.5,0,0,0,.36-.9c.05-.17.1-.34.14-.52s0-.13.05-.19-.05.19,0,.09.05-.17.08-.25a8.64,8.64,0,0,0,.32-1,6.16,6.16,0,0,0,.13-1,22.58,22.58,0,0,0,.08-2.33l0-1.07a4.64,4.64,0,0,0-.13-1.18,5.54,5.54,0,0,0-.21-.57,1.08,1.08,0,0,0-.08-.19s.06.19,0,.09a.94.94,0,0,1,0-.16c-.07-.31-.16-.6-.24-.91a6.33,6.33,0,0,0-.27-1.06c0-.1-.16-.2-.18-.3,0,.07.1.13.11.23a.38.38,0,0,0,0-.1,2.44,2.44,0,0,0-.21-.61L22,8.57a.3.3,0,0,0,0-.08c-.05-.07,0,.09,0,.1a3.26,3.26,0,0,0-.23-.6c-.16-.31-.32-.62-.47-.93a14.94,14.94,0,0,0-1-1.82,5.19,5.19,0,0,0-1.2-1.3c-.43-.33-.83-.7-1.24-1.07A11.77,11.77,0,0,0,16.6,2a.63.63,0,0,0-1,.41,1.33,1.33,0,0,0,.32,1.41,11.24,11.24,0,0,1,1.24.88c.4.36.79.72,1.2,1l.26.21.15.13.07.06s.11.12,0,0,.05,0,.07.07l.13.16c.09.11.17.23.25.35l.1.17s.1.15,0,0,0,0,0,0l.21.39c.14.29.27.59.41.88l.43.86.09.18c.08.16-.06-.18,0,0a3.38,3.38,0,0,0,.25.58.75.75,0,0,0,.08.18s-.05-.19,0-.09a.36.36,0,0,0,0,.1,3.76,3.76,0,0,0,.13.4l0,.08.12.21-.06-.11c.07.15,0-.19,0,0a1.55,1.55,0,0,1,.05.23c0,.14.05.29.09.43s.16.58.23.87a5.51,5.51,0,0,0,.34,1c0,.09,0-.1,0-.1s0,.08,0,.1,0-.08,0-.1,0,.09,0,.11a4.87,4.87,0,0,1,0,.54l0,1c0,.35,0,.69,0,1a1.85,1.85,0,0,1,0,.23v.16c0,.13,0-.08,0-.09,0,.15,0,.32,0,.47L21.8,17l0,.21a.3.3,0,0,0,0,.1c0,.12.07-.23,0,0s-.19.53-.28.8c0,.06,0,.13-.05.19s-.05.19-.07.29,0-.09,0-.09a3.81,3.81,0,0,0-.13.45c0,.13-.09.25-.14.37l-.09.21c0,.1,0-.07,0-.07a.39.39,0,0,0-.06.11,9.17,9.17,0,0,0-.46.88.36.36,0,0,0,0,.09s-.08.16,0,.05,0,.06-.05.09l-.21.36c-.15.24-.3.48-.45.7s-.14.21-.21.3l-.06.07s.13-.14,0,0a1.85,1.85,0,0,0-.14.14c-.17.17-.34.36-.52.53s-.38.31-.57.46L18,23.4l-.13.11-.07.06c-.08.07.12-.06,0,0a4.81,4.81,0,0,0-.75.38c-.18.13-.35.31-.52.45s.12-.06,0,0l-.13.06h0c.12,0,0,0,0,0l-.2,0c-1,.08-2,.05-3,.09h-.6s-.15,0,0,0-.06,0-.09,0l-.16,0-.45-.08-.23,0h-.08c-.14,0,0,0,0,0s-.23,0-.35-.07a4.85,4.85,0,0,1-.69-.26l-.34-.16-.16-.08s-.1-.06,0,0,0,0-.06,0c-.2-.13-.39-.28-.59-.42l-.59-.41-.26-.21-.16-.14-.06-.06c-.08-.07,0,0,0,0a3.73,3.73,0,0,0-.26-.3l-.26-.35-.49-.71-.23-.37A1.63,1.63,0,0,1,7,20.65L7,20.56s-.12-.19,0-.06,0-.07,0-.1a1.62,1.62,0,0,1-.1-.18c-.07-.14-.14-.29-.2-.43-.25-.55-.46-1.12-.67-1.69a2.25,2.25,0,0,1-.08-.24c-.07-.17.05.17,0,0s-.09-.29-.13-.43c-.09-.32-.14-.65-.2-1s-.08-.66-.14-1c0,0,0,.2,0,.08s0-.08,0-.11l0-.23c0-.18,0-.36,0-.55,0-.68,0-1.35,0-2,0-.16,0-.33,0-.49s0-.07,0-.11,0,.22,0,.1,0-.16,0-.25q.06-.48.15-1c0-.14.05-.28.08-.41s0-.08,0-.11-.06.22,0,0l.07-.22L5.66,10c0-.1,0,.08,0,.08l0-.08c.09-.17.18-.34.26-.53s.19-.53.28-.79.21-.54.33-.8l.1-.21,0-.09c0-.09,0,.07,0,.07s.06-.13.09-.18l.12-.22c.13-.24.28-.48.42-.7s.32-.43.49-.64l.12-.15,0,0,.08-.1.29-.32.27-.3L8.61,5l.06,0,0,0s.25-.16.28-.18.29-.19.43-.29l.08-.06c-.1.07.05,0,.07,0l.33-.17c.2-.1.41-.18.61-.29a1.28,1.28,0,0,1,.29-.14h0c-.1,0,0,0,0,0l.33-.07.34-.12.17,0,.08,0c.1,0-.13,0,0,0,.95-.12,1.92-.06,2.88-.15h.4s-.15,0-.08,0a.67.67,0,0,0,.19,0l.71.21.3.1.21,0,.15,0c.14,0-.12,0,0,0s.43.18.65.28l.16.07s.05,0,.08,0l-.09,0c.06,0-.1-.08-.09-.09s0,.06.06.07a.76.76,0,0,0,.08.11.87.87,0,0,0,1,.39c.37-.12.59-.8.46-1.3s-.53-.82-.92-.69Z"/><path d="M7.83,22.53a.8.8,0,0,0-1.22-.14,3.08,3.08,0,0,0-.51.51,8.15,8.15,0,0,0-.69.74c-.23.33-.43.69-.67,1A11.83,11.83,0,0,0,3.34,27c-.19.41-.35.84-.53,1.26s-.37.85-.55,1.28c-.37.86-.68,1.77-1,2.66a12.27,12.27,0,0,0-.78,3c-.06.52-.14,1-.18,1.57S.23,38,.21,38.56c0,1.08-.09,2.16-.08,3.24s.06,2.17.1,3.25c0,.47,0,.94,0,1.41a4,4,0,0,0,.29,1.6,1.22,1.22,0,0,0,1.16.8l.36,0a3.6,3.6,0,0,1,.56,0c.74.08,1.48,0,2.23,0L5.4,49a3,3,0,0,1,.59.07c-.16-.05-.07,0,0,0l.16,0,.24.06a4.41,4.41,0,0,0,.72.08c.76,0,1.52-.06,2.28-.1C10.9,49.06,12.44,49,14,49l1.14,0a8,8,0,0,0,1.09-.05c.37-.06.73-.16,1.09-.22s.73-.06,1.1-.11.72-.07,1.08-.15a3.06,3.06,0,0,0,.63-.2l.24-.09.1,0h.15s-.18,0,0,0a1.29,1.29,0,0,0,.39,0,1.8,1.8,0,0,0,.4-.1c.06,0,.09-.07,0,0,0,0,.11,0,.16,0l.27,0,.26-.07c.12,0-.18,0,0,0a2.38,2.38,0,0,1,.53-.05,2.55,2.55,0,0,0,.67-.07l.25-.08c.11,0,0,0,0,0s.13,0,.15,0l-.08-2.08h-.06a.94.94,0,0,0-.69,1.06c0,.55.36,1,.77,1h.06a.93.93,0,0,0,.68-1.06c0-.59-.35-1-.76-1a1.92,1.92,0,0,0-.62.14h0c-.09,0-.07,0,0,0s-.08,0-.11,0h-.29a2.74,2.74,0,0,0-.5,0l-.38.08c-.06,0-.13.08,0,0,0,0-.11,0-.15,0a3.25,3.25,0,0,0-.62.13c-.17,0,.11,0,0,0h-.08a1.54,1.54,0,0,0-.3,0,3.14,3.14,0,0,0-1.09.31s-.11,0-.13,0,.2,0,.05,0l-.27,0-.55.08c-.35.05-.7.05-1,.09s-.69.14-1,.21a5.54,5.54,0,0,1-1.07.1c-1.48,0-3,.1-4.45.15l-2.18.09q-.57,0-1.14.06h-.9c.19.06,0,0,0,0-.4-.08-.79-.14-1.19-.19s-.72-.12-1.09-.14a9.74,9.74,0,0,0-1.08,0c-.35,0-.71,0-1.07-.07a2.81,2.81,0,0,0-.41,0l-.17,0H1.56c-.12,0,.2.07,0,0s.18.13.07,0-.08-.1.06.07c-.08-.1.05.06.05.08l0-.06,0,.09a.59.59,0,0,0-.05-.23l0,.15s0-.09,0-.13a1.21,1.21,0,0,1,0-.19c0-.42,0-.85,0-1.28l-.06-1.55c0-1.05-.08-2.1,0-3.14s.06-2.1.11-3.14a1.34,1.34,0,0,1,0-.2c0-.06,0-.2,0,0a1.63,1.63,0,0,1,0-.38l.09-.77c.06-.46.11-.93.2-1.38l0-.14c0-.24-.06.21,0,0a2.29,2.29,0,0,1,.08-.28c.07-.23.15-.46.23-.69.16-.45.33-.9.5-1.35s.3-.85.47-1.27.35-.81.52-1.21.35-.83.52-1.25c.08-.2.17-.39.25-.58s.09-.18.13-.27.07-.2,0,0l.09-.17a9.12,9.12,0,0,1,.63-1.05c.24-.33.5-.63.72-1l.29-.46L6.55,25c.08-.12,0,.05,0,.05s.15-.15.21-.21.3-.31.46-.47a.68.68,0,0,1,.12-.12l.06-.06c.1-.08-.09.08-.09.06l.07,0c.06,0,.13,0-.11,0,.1,0-.14,0-.13,0L7,24.14c-.12-.14-.15-.17-.1-.1a.59.59,0,0,0,1,0,1.44,1.44,0,0,0-.06-1.47Z"/><path d="M20,24.43s.07,0,.08,0-.19-.05-.08,0l.14,0c.06,0-.09,0-.09,0l.07,0,.14.12c.1.08-.05,0-.06-.06l.07.07.1.14a2.8,2.8,0,0,1,.24.33c.35.51.72,1,1.06,1.52,0,0,.07.12,0,0s0,0,0,0l.11.21c.07.15.14.32.22.48s.13.28.2.41.14.26.22.38l.07.11c.07.11,0,0,0-.06,0,.13.13.28.18.4s0-.1,0-.1,0,.08,0,.12.05.18.07.27c.09.3.16.61.25.91a4,4,0,0,0,.15.45s-.06-.19,0-.08a.84.84,0,0,0,.05.17c.05.2.08.41.12.61s.07.4.12.59a1.65,1.65,0,0,0,.14.41.47.47,0,0,0,0,.1c.09.18,0,.2,0-.27a1.38,1.38,0,0,0,.24.73.64.64,0,0,0,.52.28A.93.93,0,0,0,25,31.69a2.49,2.49,0,0,0-.23-.83l-.05-.09s.05.24,0,.06,0-.21-.06-.32a8.34,8.34,0,0,0-.33-1.33c0-.1,0-.09,0,.06l0-.11a2.17,2.17,0,0,1-.07-.24c0-.17-.08-.33-.13-.49a6.73,6.73,0,0,0-.37-1.15,3,3,0,0,0-.32-.56c-.07-.11.08.15,0,0a.41.41,0,0,0-.05-.09c-.05-.1-.1-.2-.14-.3a10.48,10.48,0,0,0-.47-.95c-.38-.65-.82-1.21-1.23-1.82s-1-1.24-1.68-1.22c-.38,0-.72.51-.69,1.07s.36,1,.77,1Z"/><path d="M6.66,22a1.63,1.63,0,0,0-1.08.54,2.37,2.37,0,0,0-.25.29.86.86,0,0,0-.07.1l0,0q-.09.12,0,0c0,.05-.12.13-.15.16l-.32.36a10,10,0,0,0-.63,1c-.1.16-.19.33-.29.5l-.13.25,0,0c-.12.25-.14.29,0,.12,0,0-.09.14-.1.16A4.1,4.1,0,0,0,3,26.69c-.12.4-.26.79-.39,1.18s-.32.87-.47,1.31-.27.85-.39,1.28-.27.91-.4,1.37-.3,1-.4,1.46-.12.84-.16,1.27-.09.89-.14,1.34a9.13,9.13,0,0,0-.08,1.57c0,.12,0,.22,0,.34s0-.05,0-.06a.58.58,0,0,1,0,.18c0,.3,0,.61,0,.92,0,1,.06,2,.1,3.06s.1,2,.14,3.05c0,.46,0,.93,0,1.39a3.16,3.16,0,0,0,.37,1.72,1,1,0,0,0,1,.41l1,0a13.14,13.14,0,0,1,2.08,0l.51.06.11,0,.28,0a9.81,9.81,0,0,1,1,.22,18.33,18.33,0,0,0,2.2.36,11.48,11.48,0,0,0,2.11.17c.71,0,1.43-.07,2.14-.09L18,49l1.08,0a6.77,6.77,0,0,0,1-.07,7.09,7.09,0,0,1,1-.14c.35,0,.7,0,1.05,0l1,0c.38,0,.72-.51.68-1.07s-.35-1-.76-1c-.68,0-1.36,0-2,.05a5.84,5.84,0,0,0-1,.14,5.61,5.61,0,0,1-1,.07L15,47.07l-2.09.08a20.16,20.16,0,0,1-2.06.06c-.68,0-1.36-.16-2-.25l-.49-.06h0l-.11,0-.27-.06c-.32-.08-.65-.17-1-.23a13.36,13.36,0,0,0-2.16-.3c-.66,0-1.33.06-2,.09-.29,0-.58,0-.87,0-.13,0,.17,0,.09,0s.13.09.16.11.19.21.17.32l0-.12c0-.11,0-.08,0,.08,0,0,0-.09,0-.13s0-.22,0-.33c0-1-.06-1.92-.11-2.87s-.09-2-.13-2.94c0-.49,0-1,0-1.47,0-.12,0-.25,0-.37v-.15c0-.2,0,0,0,0s0-.22,0-.33l0-.57c0-.2,0-.41,0-.61,0,0,0-.26,0-.08S2,37,2,37s0-.26,0-.38c.05-.44.11-.88.14-1.32s.07-.84.14-1.25c0-.09,0-.18,0-.27a.79.79,0,0,1,0-.13s-.06.22,0,0,.14-.45.2-.68c.25-.86.49-1.73.77-2.58S4,28.79,4.23,28c.06-.18.1-.37.17-.55s.06-.15.08-.22c-.06.19-.06.12,0,.06a1.3,1.3,0,0,0,.1-.15l.14-.19c0-.05,0-.09.07-.14s.17-.4.08-.14a2.74,2.74,0,0,1,.27-.51c.2-.33.39-.68.6-1L5.79,25l0-.06,0,0a.94.94,0,0,1,.1-.1,4.29,4.29,0,0,0,.43-.51c.08-.13,0,.05,0,.05a.45.45,0,0,0,.09-.1c.06-.05.13-.09.19-.15s-.16.09,0,0l.08,0s.09,0,.09,0l-.1,0h.08a.94.94,0,0,0,.69-1.06c0-.56-.36-1-.76-1Z"/><path d="M6.26,22.17a1.12,1.12,0,0,0-.68.19c-.12.09-.23.22-.35.32a5.66,5.66,0,0,0-.8.82,6.19,6.19,0,0,0-.53.86l-.06.08c-.08.15.11-.1,0,0l-.15.16a4.19,4.19,0,0,0-.4.54,4.36,4.36,0,0,0-.32.65.61.61,0,0,0,0,.12c-.07.2.07-.12,0,0a2.13,2.13,0,0,1-.16.25,5.68,5.68,0,0,0-.6,1.15c-.3.77-.62,1.51-.91,2.28-.05.12.09-.16,0-.06a.75.75,0,0,0-.07.12,2,2,0,0,0-.11.2,3,3,0,0,0-.31.68,4.94,4.94,0,0,0-.12.77,7,7,0,0,1-.14.69q-.07.31-.12.63c0,.21,0,.42-.07.64-.07.45-.14.91-.19,1.37-.11,1-.24,2-.29,3s0,1.92,0,2.88c0,.56,0,1.13.06,1.69A15.26,15.26,0,0,0,.18,44c0,.15.05.29.07.43l0,.15,0-.12a.77.77,0,0,1,0,.15c0,.26,0,.52,0,.77a6.62,6.62,0,0,0,0,.77l.06.38v.11c0-.15,0-.18,0-.1s0,.27,0,.41c0,.55.37,1,.77,1a.94.94,0,0,0,.69-1.06c0-.29-.06-.58-.1-.87,0-.1-.05-.09,0,.06a.78.78,0,0,1,0-.14c0-.13,0-.26,0-.39A13.14,13.14,0,0,0,1.66,44c0-.22-.07-.44-.11-.66s0-.21-.05-.31,0-.27,0-.1,0-.06,0-.09c-.06-.49-.07-1-.09-1.45,0-.94-.09-1.88-.07-2.81,0-.24,0-.48,0-.71v-.16c0-.2,0,0,0,0a2.47,2.47,0,0,0,0-.39c0-.46.08-.92.14-1.38s.1-.91.16-1.36.14-.84.18-1.27a11,11,0,0,1,.22-1.28,5.21,5.21,0,0,0,.08-.57,1,1,0,0,0,0-.17c0-.14-.06.18,0,.07l.05-.14c.06-.15-.07.13,0,0a6.89,6.89,0,0,0,.53-1.09c.14-.4.32-.78.48-1.16s.26-.71.41-1.05c.08-.18,0,0,0,0s.06-.11.05-.11l.13-.2a4.78,4.78,0,0,0,.29-.44l.21-.45a.61.61,0,0,1,.05-.12.61.61,0,0,1,0-.12l0,.1a4.1,4.1,0,0,0,.3-.47s-.12.14,0,.06l.11-.11A2.1,2.1,0,0,0,5,25.83c.1-.15.17-.32.26-.47s.22-.31.33-.47c0,0-.13.14,0,0l.11-.11c.06-.07.13-.13.19-.19s.25-.21.37-.33l.09-.09s.14-.08,0,0-.22,0-.1.07a.66.66,0,0,0,.14,0c.38,0,.72-.51.69-1.06s-.36-1-.77-1Z"/><path d="M21,24.51l.17,0s.13,0,.17,0c-.12,0-.15,0-.07,0a.37.37,0,0,1-.19-.15l.06.08c-.08-.14-.09-.16,0-.08a3.46,3.46,0,0,0,.5.84,7.06,7.06,0,0,1,.6.73c.05.07.1.14.14.21a.61.61,0,0,1,.07.1c.05.09,0,.08,0,0a2.48,2.48,0,0,1,.22.43l.1.21s0,.08,0,.13,0,.08,0-.05a1.12,1.12,0,0,1,.08.26l.15.45a3.13,3.13,0,0,0,.22.45c0,.07.12.31,0,0,.06.19,0-.22,0,0s.05.31.06.46c0-.32,0,0,0,.08,0,.26,0,.52.08.78a4.73,4.73,0,0,0,.41,1.09c0-.35,0-.7,0-1.05l0,.11A1.33,1.33,0,0,0,24,31c.38.26.77.08,1-.41l.05-.12a1.47,1.47,0,0,0,0-1l-.15-.31c0-.06-.06-.13-.09-.18s0,.09,0,.1a.28.28,0,0,0,0-.13c0-.19,0,.19,0,0s0-.15,0-.22c0-.24-.06-.47-.09-.71,0,0,0,.22,0,.1a.41.41,0,0,1,0-.11c0-.13,0-.28-.06-.41a2.12,2.12,0,0,0-.21-.6,3.41,3.41,0,0,1-.17-.33,1.82,1.82,0,0,0-.08-.19s.06.18,0,.08a1.09,1.09,0,0,0-.05-.17,7.21,7.21,0,0,0-.88-1.83,6,6,0,0,0-.48-.62c-.08-.1-.17-.19-.25-.28s-.06-.09-.09-.12.1.18,0,.1a1,1,0,0,0,0-.1,2.56,2.56,0,0,0-.61-.9,1.21,1.21,0,0,0-.9-.17.94.94,0,0,0-.69,1.06c0,.56.36,1,.76,1Z"/></svg>