<svg xmlns="http://www.w3.org/2000/svg" viewBox="0 0 50 50"><defs><style>.cls-1{isolation:isolate;}.cls-2{mix-blend-mode:multiply;}</style></defs><title>Sin título-1</title><g class="cls-1"><g id="Capa_1" data-name="Capa 1"><g class="cls-2"><path d="M7.29,8.83c-7,6.94-8.3,18.76-4,27.51,4.42,9.08,14.26,14.07,24,13.58a30.43,30.43,0,0,0,8.93-1.84,28,28,0,0,0,7.37-3.8,13.65,13.65,0,0,0,4.58-6.92A40.42,40.42,0,0,0,49.8,29.5,26.76,26.76,0,0,0,47.67,15,25.53,25.53,0,0,0,37.18,4.23,29.32,29.32,0,0,0,22.57,0a19.35,19.35,0,0,0-7.24,1.36A21.76,21.76,0,0,0,9.21,5.22C2.15,11.41-1.23,21.8.41,31.11c1.68,9.52,9.81,16.08,18.72,18.15a27.4,27.4,0,0,0,14.7-.56A24.37,24.37,0,0,0,45.8,40,22.77,22.77,0,0,0,49.94,25.3a27.12,27.12,0,0,0-5-14.68C38.46,2.05,26.34-1.06,16.28,1.5c-1.59.41-3.71,1-4.58,2.56-.35.63.6,1.2,1,.57A3.7,3.7,0,0,1,14.5,3.26a16,16,0,0,1,2.81-.84,26.72,26.72,0,0,1,6.24-.64A27.84,27.84,0,0,1,39,6.5a22,22,0,0,1,5.59,5.56,24.92,24.92,0,0,1,3.08,6.76,25.23,25.23,0,0,1,.17,14.63A21.58,21.58,0,0,1,39.11,44.9a24.51,24.51,0,0,1-13.33,4c-8.7.07-18-4.17-22.29-12.18A23,23,0,0,1,1.28,23.48,28.35,28.35,0,0,1,5.79,10.82a22.14,22.14,0,0,1,10.3-8.55,21.75,21.75,0,0,1,14.14.09A30.44,30.44,0,0,1,42.65,9.78a21.85,21.85,0,0,1,6,12.59,34.23,34.23,0,0,1-1.62,14.69,12.37,12.37,0,0,1-4.57,6.62,29,29,0,0,1-7.36,3.58,27.41,27.41,0,0,1-15.91.7A23.94,23.94,0,0,1,7.92,41.2c-6.36-6.86-7.76-17.56-3.74-26A19.53,19.53,0,0,1,8.07,9.63a.56.56,0,0,0-.78-.8Z"/></g><g class="cls-2"><path d="M7,10c.33-.38.56-.82.86-1.22s.65-.69.95-1,.53-.7.77-1A3.27,3.27,0,0,1,10,6.32a.8.8,0,0,1,.16-.13l.13-.07.08,0-.62-.26.16.23a.55.55,0,1,0,.95-.57l-.16-.23A.58.58,0,0,0,10.07,5a2.94,2.94,0,0,0-1.16.84,6.26,6.26,0,0,0-.45.57l-.36.47c-.32.39-.71.73-1,1.12s-.55.88-.88,1.25a.58.58,0,0,0,0,.8A.56.56,0,0,0,7,10Z"/></g><g class="cls-2"><path d="M7.45,9.84c-.07-.54.46-1.1.78-1.45s.91-.87,1.34-1.33a5.46,5.46,0,0,1,1.3-1.15c.69-.4,1.45-.69,2.12-1.11.52-.33.19-1.23-.42-1A9.1,9.1,0,0,0,9.23,5.82,13.43,13.43,0,0,0,7.64,7.24a9.53,9.53,0,0,0-1,2c-.27.54.45,1.22.86.69A21.88,21.88,0,0,1,10,7.26a9.92,9.92,0,0,1,2.88-1.72C14,5,15.06,4.44,16.2,3.93a22.36,22.36,0,0,1,3.68-1,8.7,8.7,0,0,1,1.75-.32c.55,0,1.1,0,1.65-.12s1.16-.3,1.76-.35,1.34,0,2,0,1.09,0,1.63,0a17.09,17.09,0,0,1,1.87.35,10.47,10.47,0,0,1,3.65.94,17.63,17.63,0,0,0,1.6.88,13.13,13.13,0,0,1,1.64.81,8.25,8.25,0,0,1,1.31,1.12,12.87,12.87,0,0,1,1.14,1.5c.66.9,1.71,1.48,2.22,2.48a4.6,4.6,0,0,0,.74,1.27c.32.33.79.5,1.09.85s.32,1,.67,1.36c.15.17.35.3.5.48a3.33,3.33,0,0,1,.44.78,3.63,3.63,0,0,1,.25,1.46,3.26,3.26,0,0,0,.47,1.49,6.62,6.62,0,0,1,.29,1.32,9.29,9.29,0,0,0,.58,1.63,17,17,0,0,1,1.13,3.54,25.44,25.44,0,0,1,.62,4.26,21.43,21.43,0,0,1-.23,4.16c-.22,1.19-.75,2.28-1,3.45a5.08,5.08,0,0,1-1.35,2.93c-.55.46.23,1.25.78.79a5,5,0,0,0,1.45-2.65c.27-1,.6-2,.94-3A11.8,11.8,0,0,0,50,30.64a20.13,20.13,0,0,0-.19-4.1c-.25-1.28-.41-2.6-.76-3.87s-1-2.33-1.35-3.56a13.41,13.41,0,0,0-.29-1.43,4.32,4.32,0,0,0-.3-.61,2,2,0,0,1-.17-1,4.16,4.16,0,0,0-1.19-2.86,1.54,1.54,0,0,1-.48-.69,2.94,2.94,0,0,0-.28-.69,4.54,4.54,0,0,0-1.15-1A3.76,3.76,0,0,1,43,9.5a5.43,5.43,0,0,0-1.15-1.33,7.33,7.33,0,0,1-1.22-1.33A9.08,9.08,0,0,0,39.39,5.3a9.64,9.64,0,0,0-3-1.93,16.88,16.88,0,0,0-3.57-1.69c-.61-.12-1.22-.16-1.82-.25S29.72,1.11,29,1A24.12,24.12,0,0,0,25.24,1a10.6,10.6,0,0,0-1.77.32,15.15,15.15,0,0,1-2,.17,13.27,13.27,0,0,0-2.07.4c-.73.18-1.47.28-2.19.5a22.6,22.6,0,0,0-4,1.76A17.75,17.75,0,0,0,9.68,6a21.56,21.56,0,0,0-3,3.08l.87.68A10.62,10.62,0,0,1,8.47,8,10.43,10.43,0,0,1,9.88,6.74a8.09,8.09,0,0,1,3-1.89l-.42-1c-.78.49-1.64.8-2.42,1.29A9.92,9.92,0,0,0,8.53,6.52c-1,1-2.35,2.06-2.14,3.62.1.71,1.16.41,1.06-.3Z"/></g><g class="cls-2"><path d="M24,26c0-1.3.11-2.6.21-3.9s.09-2.71.09-4.07c0-2.67,0-5.33,0-8H23.2c0,4,.29,8.07.31,12.11,0,1,0,2,0,2.94A1.43,1.43,0,0,0,24,26.39a2.81,2.81,0,0,0,1.6.13c.94-.08,1.84-.35,2.8-.34l3.25,0c.45,0,.89,0,1.34,0a2.19,2.19,0,0,1,1.11,0v-1c-.39.24-.9.08-1.34.22a3.82,3.82,0,0,1-1.37.37,8.47,8.47,0,0,0-1.51,0c-.54.08-1,.29-1.58.35A8.53,8.53,0,0,1,25.47,26a4.39,4.39,0,0,0-2.77-.14.59.59,0,0,0-.41.54c.11,1.92,3.32,1.17,4.49,1.2V26.45a5.68,5.68,0,0,1-2.11-.36.75.75,0,0,1-.59-.68A22.17,22.17,0,0,1,24,20.66c.07-3.46,0-6.93,0-10.4a.56.56,0,0,0-1.11,0c0,3.89.07,7.79,0,11.67a23.11,23.11,0,0,0,0,2.76,4.13,4.13,0,0,0,.37,1.7,1.91,1.91,0,0,0,1.19.81,7.11,7.11,0,0,0,2.33.38.57.57,0,0,0,0-1.13c-.63,0-1.27.08-1.9.09a5.77,5.77,0,0,1-1-.05c-.14,0-.27-.09-.41-.11s-.06-.08-.05,0l-.41.55c.9-.39,1.9.12,2.81.26a9.27,9.27,0,0,0,3,0,8.79,8.79,0,0,1,1.59-.32,11,11,0,0,0,1.52.05c.5-.06.91-.39,1.4-.44a2.65,2.65,0,0,0,1.35-.28.57.57,0,0,0,0-1A3.26,3.26,0,0,0,32.85,25c-.82.07-1.66,0-2.49,0s-1.86-.09-2.79,0-1.65.33-2.5.34a4.78,4.78,0,0,0-.53,0c.16,0,0,.23.09.05a1.71,1.71,0,0,0,0-.39c0-.95,0-1.89,0-2.83,0-1.91,0-3.82-.12-5.73-.08-2.16-.19-4.32-.19-6.49a.56.56,0,0,0-1.11,0v8c0,1.32,0,2.64-.08,4s-.24,2.67-.23,4A.56.56,0,0,0,24,26Z"/></g><g class="cls-2"><path d="M23.11,1.82c0,.65-.11,1.3-.05,2a3.37,3.37,0,0,0,.22.95,3.24,3.24,0,0,1,.13.41.52.52,0,0,1,0,.11v0a2.18,2.18,0,0,1,0,.25h1.1A12.59,12.59,0,0,0,24.45,2a.55.55,0,0,0-.38-.39l-.26-.06a.58.58,0,0,0-.68.4.57.57,0,0,0,.39.69l.25,0-.38-.39a5.32,5.32,0,0,1,.11,1.52c0,.55-.08,1.1-.08,1.65a.56.56,0,0,0,.55.56.57.57,0,0,0,.55-.56,2,2,0,0,0-.14-1c-.05-.14-.1-.28-.14-.42a1.55,1.55,0,0,1-.06-.23c0-.06,0-.07,0,0a.28.28,0,0,0,0-.09,18.15,18.15,0,0,1,.06-1.95.57.57,0,0,0-.56-.56.56.56,0,0,0-.55.56Z"/></g><g class="cls-2"><path d="M2.05,27.58H4.67a.57.57,0,0,0,0-1.13H1.43a.57.57,0,0,0,0,1.13H4.67a.57.57,0,0,0,0-1.13H2.05a.57.57,0,0,0,0,1.13Z"/></g><g class="cls-2"><path d="M45.58,25.82h-.2a.57.57,0,0,0,0,1.13h3.2V25.82a16.88,16.88,0,0,1-2.25,0,14,14,0,0,0-2.23-.34.56.56,0,0,0,0,1.12h4.26a.56.56,0,0,0,0-1.12c-1.42,0-2.84,0-4.26,0v1.12a16.48,16.48,0,0,1,2.2.34,19.27,19.27,0,0,0,2.28,0,.57.57,0,0,0,0-1.13h-3.2a.57.57,0,0,0,0,1.13h.2a.57.57,0,0,0,0-1.13Z"/></g><g class="cls-2"><path d="M25.76,45.59a2.05,2.05,0,0,1,.16-.66,2.91,2.91,0,0,0,.16-.82.56.56,0,0,0-1.11,0c0,1.49,0,3,0,4.48a.56.56,0,0,0,1.11,0,9.38,9.38,0,0,0-.29-2,13.14,13.14,0,0,1,0-2.08H24.65v3.64a.56.56,0,0,0,1.11,0V44.47a.56.56,0,0,0-1.11,0,16.46,16.46,0,0,0,.05,2.22,9.46,9.46,0,0,1,.27,1.9h1.11c0-1.49,0-3,0-4.48H25a2.06,2.06,0,0,1-.16.65,2.91,2.91,0,0,0-.16.83.56.56,0,0,0,1.11,0Z"/></g></g></g></svg>